#!OML:ASF F:\VICON\USERDATA\INSTALL\rory3\rory3.ASF
:FULLY-SPECIFIED
:DEGREES
2881
root 3.50191 17.2988 -0.88898 11.2956 -60.723 -9.44007
lowerback 11.4588 4.87431 2.97286
upperback 1.63024 6.93456 3.30491
thorax -4.74758 3.36202 0.730094
lowerneck -21.0906 4.12271 -5.57331
upperneck 24.2545 6.29462 4.77502
head 10.9747 2.92416 3.61898
rclavicle -8.15017e-015 9.54166e-015
rhumerus 4.88237 19.7232 -78.6532
rradius 130.103
rwrist -3.42973
rhand -12.2965 20.7737
rfingers 7.12502
rthumb 13.7712 -8.75051
lclavicle -8.15017e-015 9.54166e-015
lhumerus -4.05384 -11.105 79.3719
lradius 125.806
lwrist 0.532489
lhand -14.8396 11.3625
lfingers 7.12502
lthumb 11.3194 41.037
rfemur -7.41451 -7.2334 13.3948
rtibia 55.8852
rfoot -14.5226 -1.11539
rtoes -8.89755
lfemur -33.0876 2.02716 -6.74123
ltibia 66.2862
lfoot 1.49448 -13.3192
ltoes -24.3741
2882
root 3.57377 17.1954 -0.928467 11.5993 -60.4814 -9.78537
lowerback 11.1768 4.60577 3.12076
upperback 1.56095 6.58988 3.36589
thorax -4.65531 3.19254 0.784327
lowerneck -20.9095 4.21915 -5.61469
upperneck 24.3075 6.40932 4.85365
head 10.947 2.9806 3.66516
rclavicle 1.96797e-014 6.36111e-015
rhumerus 3.82906 19.9614 -79.3087
rradius 129.999
rwrist -3.39887
rhand -11.9576 20.9288
rfingers 7.12502
rthumb 14.0979 -8.57299
lclavicle 1.96797e-014 6.36111e-015
lhumerus -3.43682 -11.0234 79.4089
lradius 125.527
lwrist 0.116731
lhand -14.9378 11.5977
lfingers 7.12502
lthumb 11.2248 41.2774
rfemur -6.74262 -7.02609 13.4956
rtibia 57.0027
rfoot -13.4237 -0.305446
rtoes -6.08069
lfemur -32.1107 0.946914 -6.3281
ltibia 65.0767
lfoot -1.73058 -13.5322
ltoes -26.9997
2883
root 3.64501 17.0762 -0.975133 11.7316 -60.0639 -9.9078
lowerback 10.9359 4.37291 3.13344
upperback 1.45884 6.2799 3.40217
thorax -4.63245 3.04147 0.874721
lowerneck -20.8519 4.25185 -5.58399
upperneck 24.3843 6.41604 4.94001
head 10.9611 2.99512 3.69332
rclavicle -6.74874e-014 2.22639e-014
rhumerus 2.53701 20.0503 -79.817
rradius 130.005
rwrist -2.46587
rhand -12.9357 21.3152
rfingers 7.12502
rthumb 13.1552 -8.24982
lclavicle -6.74874e-014 2.22639e-014
lhumerus -2.88351 -11.15 79.5016
lradius 125.305
lwrist -0.134925
lhand -15.5032 11.8803
lfingers 7.12502
lthumb 10.6794 41.5888
rfemur -5.92765 -6.71557 13.5926
rtibia 57.7848
rfoot -12.2638 0.589935
rtoes -2.4453
lfemur -31.3166 -0.155301 -6.04602
ltibia 63.9268
lfoot -5.66328 -13.9668
ltoes -28.9985
2884
root 3.71235 16.9461 -1.0283 11.8069 -59.5984 -9.80097
lowerback 10.514 4.19544 2.86558
upperback 1.38124 6.00488 3.51033
thorax -4.51945 2.91565 1.20196
lowerneck -20.9165 4.22994 -5.63827
upperneck 24.415 6.4205 4.89493
head 10.9848 2.98512 3.69033
rclavicle 4.00551e-014 -2.22639e-014
rhumerus 1.30095 20.1748 -80.1177
rradius 129.948
rwrist -0.637594
rhand -14.6883 21.7933
rfingers 7.12502
rthumb 11.4653 -7.87318
lclavicle 4.00551e-014 -2.22639e-014
lhumerus -2.27717 -11.0841 79.8089
lradius 125.05
lwrist -0.493363
lhand -15.6349 11.3382
lfingers 7.12502
lthumb 10.5524 41.0533
rfemur -5.14958 -6.41938 13.7093
rtibia 58.1735
rfoot -10.6863 1.27149
rtoes -1.06635
lfemur -30.9272 -0.920245 -5.96884
ltibia 63.192
lfoot -10.623 -13.584
ltoes -32.9165
2885
root 3.77982 16.8213 -1.08004 11.8718 -59.1084 -9.60154
lowerback 10.0238 3.98028 2.69679
upperback 1.35541 5.68308 3.57372
thorax -4.29502 2.76549 1.43954
lowerneck -21.0364 4.23515 -5.77511
upperneck 24.3284 6.50321 4.82413
head 10.9684 3.0037 3.69926
rclavicle 6.65929e-015 -1.82882e-014
rhumerus 0.192327 20.2812 -80.431
rradius 130.041
rwrist 0.626337
rhand -15.4811 21.9328
rfingers 7.12502
rthumb 10.7007 -7.7747
lclavicle 6.65929e-015 -1.82882e-014
lhumerus -1.68219 -10.6988 80.1229
lradius 124.857
lwrist -1.15279
lhand -15.3391 10.8474
lfingers 7.12502
lthumb 10.8377 40.5478
rfemur -4.41247 -6.15816 13.8785
rtibia 58.1469
rfoot -8.99808 1.99418
rtoes -3.08343
lfemur -31.0442 -1.33986 -6.06441
ltibia 63.0354
lfoot -13.2234 -12.1123
ltoes -30.7132
2886
root 3.8535 16.6879 -1.13538 11.7982 -58.6132 -9.14941
lowerback 9.55735 3.73172 2.4871
upperback 1.29922 5.31544 3.58686
thorax -4.11058 2.59193 1.64714
lowerneck -21.089 4.26251 -5.96199
upperneck 24.1423 6.63583 4.73159
head 10.898 3.04097 3.70827
rclavicle -1.21457e-013 -4.69132e-014
rhumerus -0.896541 20.3808 -80.7772
rradius 130.357
rwrist 1.02816
rhand -15.2932 21.9568
rfingers 7.12502
rthumb 10.8819 -7.74124
lclavicle -1.21457e-013 -4.69132e-014
lhumerus -1.21889 -10.2198 80.4296
lradius 124.744
lwrist -1.84118
lhand -15.3985 10.6005
lfingers 7.12502
lthumb 10.7804 40.3038
rfemur -3.73878 -5.98856 14.0166
rtibia 57.7362
rfoot -7.85662 3.05612
rtoes -9.46406
lfemur -31.7049 -1.40696 -6.41538
ltibia 63.3746
lfoot -15.9188 -10.6292
ltoes -29.6516
2887
root 3.93445 16.539 -1.19937 11.6158 -58.1705 -8.45863
lowerback 9.12092 3.43519 2.06662
upperback 1.20215 4.87139 3.6554
thorax -4.00314 2.38306 2.03172
lowerneck -21.0909 4.32155 -6.45469
upperneck 23.8521 6.89656 4.69607
head 10.7567 3.12063 3.79772
rclavicle -4.37326e-015 -3.26007e-014
rhumerus -1.65614 20.7679 -81.0245
rradius 130.669
rwrist 1.29803
rhand -14.9697 21.8384
rfingers 7.12502
rthumb 11.1939 -7.84298
lclavicle -4.37326e-015 -3.26007e-014
lhumerus -0.839411 -9.60421 80.8319
lradius 124.748
lwrist -2.04083
lhand -15.8349 10.742
lfingers 7.12502
lthumb 10.3594 40.4668
rfemur -3.10134 -5.63506 14.1435
rtibia 56.9972
rfoot -7.84639 4.7259
rtoes -15.7396
lfemur -32.7319 -1.17872 -6.96423
ltibia 63.9905
lfoot -18.2025 -9.67672
ltoes -28.4985
